<?xml version="1.0" encoding="windows-1252"?>
<!-- Generator: Adobe Illustrator 19.0.0, SVG Export Plug-In . SVG Version: 6.00 Build 0)  -->
<svg xmlns="http://www.w3.org/2000/svg" xmlns:xlink="http://www.w3.org/1999/xlink" version="1.1" id="Capa_1" x="0px" y="0px" viewBox="0 0 60 60" style="enable-background:new 0 0 60 60;" xml:space="preserve" width="512px" height="512px">
<g>
	<g>
		<path d="M14.962,16.5h-2.924C10.914,16.5,10,17.414,10,18.538v2.924c0,1.124,0.914,2.038,2.038,2.038h2.924    c1.124,0,2.038-0.914,2.038-2.038v-2.924C17,17.414,16.086,16.5,14.962,16.5z M15,21.462c0,0.021-0.017,0.038-0.038,0.038    L12,21.462l0.038-2.962L15,18.538V21.462z" fill="#ddd"/>
		<path d="M25.962,16.5h-2.924C21.914,16.5,21,17.414,21,18.538v2.924c0,1.124,0.914,2.038,2.038,2.038h2.924    c1.124,0,2.038-0.914,2.038-2.038v-2.924C28,17.414,27.086,16.5,25.962,16.5z M26,21.462c0,0.021-0.017,0.038-0.038,0.038    L23,21.462l0.038-2.962L26,18.538V21.462z" fill="#ddd"/>
		<path d="M34.038,23.5h2.924c1.124,0,2.038-0.914,2.038-2.038v-2.924c0-1.124-0.914-2.038-2.038-2.038h-2.924    C32.914,16.5,32,17.414,32,18.538v2.924C32,22.586,32.914,23.5,34.038,23.5z M34.038,18.5L37,18.538v2.924    c0,0.021-0.017,0.038-0.038,0.038L34,21.462L34.038,18.5z" fill="#ddd"/>
		<path d="M45.038,23.5h2.924c1.124,0,2.038-0.914,2.038-2.038v-2.924c0-1.124-0.914-2.038-2.038-2.038h-2.924    C43.914,16.5,43,17.414,43,18.538v2.924C43,22.586,43.914,23.5,45.038,23.5z M45.038,18.5L48,18.538v2.924    c0,0.021-0.018,0.038-0.038,0.038L45,21.462L45.038,18.5z" fill="#ddd"/>
		<path d="M14.962,27.5h-2.924C10.914,27.5,10,28.414,10,29.538v2.924c0,1.124,0.914,2.038,2.038,2.038h2.924    c1.124,0,2.038-0.914,2.038-2.038v-2.924C17,28.414,16.086,27.5,14.962,27.5z M15,32.462c0,0.021-0.017,0.038-0.038,0.038    L12,32.462l0.038-2.962L15,29.538V32.462z" fill="#ddd"/>
		<path d="M25.962,27.5h-2.924C21.914,27.5,21,28.414,21,29.538v2.924c0,1.124,0.914,2.038,2.038,2.038h2.924    c1.124,0,2.038-0.914,2.038-2.038v-2.924C28,28.414,27.086,27.5,25.962,27.5z M26,32.462c0,0.021-0.017,0.038-0.038,0.038    L23,32.462l0.038-2.962L26,29.538V32.462z" fill="#ddd"/>
		<path d="M34.038,34.5h2.924c1.124,0,2.038-0.914,2.038-2.038v-2.924c0-1.124-0.914-2.038-2.038-2.038h-2.924    C32.914,27.5,32,28.414,32,29.538v2.924C32,33.586,32.914,34.5,34.038,34.5z M34.038,29.5L37,29.538v2.924    c0,0.021-0.017,0.038-0.038,0.038L34,32.462L34.038,29.5z" fill="#ddd"/>
		<path d="M45.038,34.5h2.924c1.124,0,2.038-0.914,2.038-2.038v-2.924c0-1.124-0.914-2.038-2.038-2.038h-2.924    C43.914,27.5,43,28.414,43,29.538v2.924C43,33.586,43.914,34.5,45.038,34.5z M45.038,29.5L48,29.538v2.924    c0,0.021-0.018,0.038-0.038,0.038L45,32.462L45.038,29.5z" fill="#ddd"/>
		<path d="M60,45.5v-40H0v40h29v4H15v5h30v-5H31v-4H60z M43,51.5v1H17v-1H43z M2,7.5h56v36H2V7.5z" fill="#ddd"/>
	</g>
</g>
<g>
</g>
<g>
</g>
<g>
</g>
<g>
</g>
<g>
</g>
<g>
</g>
<g>
</g>
<g>
</g>
<g>
</g>
<g>
</g>
<g>
</g>
<g>
</g>
<g>
</g>
<g>
</g>
<g>
</g>
</svg>